<?xml version="1.0" standalone="no"?>
<!DOCTYPE svg PUBLIC "-//W3C//DTD SVG 20010904//EN"
 "http://www.w3.org/TR/2001/REC-SVG-20010904/DTD/svg10.dtd">
<svg version="1.0" xmlns="http://www.w3.org/2000/svg"
 width="512.000000pt" height="512.000000pt" viewBox="0 0 512.000000 512.000000"
 preserveAspectRatio="xMidYMid meet">
<metadata>
Created by potrace 1.14, written by Peter Selinger 2001-2017
</metadata>
<g transform="translate(0.000000,512.000000) scale(0.100000,-0.100000)"
fill="#000000" stroke="none">
<path d="M2320 5059 c-237 -29 -351 -53 -529 -110 -93 -30 -225 -80 -258 -98
-10 -5 -60 -30 -111 -56 -163 -80 -291 -164 -447 -291 -382 -312 -657 -716
-806 -1182 -21 -67 -41 -137 -44 -155 -3 -17 -10 -45 -14 -62 -8 -27 -15 -58
-27 -135 -2 -14 -6 -34 -8 -45 -31 -144 -28 -565 4 -750 6 -33 13 -76 16 -95
3 -19 14 -71 25 -115 178 -716 653 -1314 1304 -1643 164 -82 385 -166 520
-197 52 -12 174 -36 205 -41 19 -3 41 -7 47 -9 78 -26 596 -26 718 0 11 2 36
7 55 9 225 32 490 119 725 238 308 156 564 361 803 642 177 208 351 523 446
807 29 88 81 301 92 374 3 28 8 59 10 70 19 96 26 462 11 605 -77 747 -493
1426 -1127 1843 -234 153 -619 313 -850 353 -92 16 -201 34 -235 39 -65 10
-454 13 -525 4z"/>
</g>
</svg>
